<?xml version="1.0" encoding="UTF-8" standalone="no"?>
<!DOCTYPE svg PUBLIC "-//W3C//DTD SVG 1.1//EN"
 "http://www.w3.org/Graphics/SVG/1.1/DTD/svg11.dtd">
<!-- Generated by graphviz version 2.46.1 (20210213.1702)
 -->
<!-- Title: dependencies Pages: 1 -->
<svg width="594pt" height="284pt"
 viewBox="0.00 0.00 594.00 284.00" xmlns="http://www.w3.org/2000/svg" xmlns:xlink="http://www.w3.org/1999/xlink">
<g id="graph0" class="graph" transform="scale(1 1) rotate(0) translate(4 280)">
<title>dependencies</title>
<polygon fill="white" stroke="transparent" points="-4,4 -4,-280 590,-280 590,4 -4,4"/>
<text text-anchor="start" x="272.01" y="-42.4" font-family="sans-serif" font-weight="bold" font-size="14.00">Legend</text>
<polygon fill="#ffffb3" stroke="transparent" points="59,-10 59,-30 79,-30 79,-10 59,-10"/>
<text text-anchor="start" x="82.63" y="-15.4" font-family="sans-serif" font-size="14.00"> &#160;Declarations</text>
<polygon fill="#8dd3c7" stroke="transparent" points="172,-10 172,-30 192,-30 192,-10 172,-10"/>
<text text-anchor="start" x="195.73" y="-15.4" font-family="sans-serif" font-size="14.00"> &#160;Module</text>
<polygon fill="#80b1d3" stroke="transparent" points="258,-10 258,-30 278,-30 278,-10 258,-10"/>
<text text-anchor="start" x="281.78" y="-15.4" font-family="sans-serif" font-size="14.00"> &#160;Bootstrap</text>
<polygon fill="#fdb462" stroke="transparent" points="355,-10 355,-30 375,-30 375,-10 355,-10"/>
<text text-anchor="start" x="378.67" y="-15.4" font-family="sans-serif" font-size="14.00"> &#160;Providers</text>
<polygon fill="#fb8072" stroke="transparent" points="451,-10 451,-30 471,-30 471,-10 451,-10"/>
<text text-anchor="start" x="474.73" y="-15.4" font-family="sans-serif" font-size="14.00"> &#160;Exports</text>
<g id="clust1" class="cluster">
<title>cluster_AppModule</title>
<polygon fill="none" stroke="black" stroke-dasharray="1,5" points="8,-70 8,-268 578,-268 578,-70 8,-70"/>
</g>
<g id="clust6" class="cluster">
<title>cluster_AppModule_bootstrap</title>
<polygon fill="none" stroke="black" points="235,-208 235,-260 359,-260 359,-208 235,-208"/>
</g>
<g id="clust4" class="cluster">
<title>cluster_AppModule_imports</title>
<polygon fill="none" stroke="black" points="146,-78 146,-130 570,-130 570,-78 146,-78"/>
</g>
<g id="clust2" class="cluster">
<title>cluster_AppModule_declarations</title>
<polygon fill="none" stroke="black" points="16,-78 16,-130 138,-130 138,-78 16,-78"/>
</g>
<!-- AppComponent -->
<g id="node1" class="node">
<title>AppComponent</title>
<polygon fill="#ffffb3" stroke="black" points="129.94,-122 24.06,-122 24.06,-86 129.94,-86 129.94,-122"/>
<text text-anchor="middle" x="77" y="-99.8" font-family="Times,serif" font-size="14.00">AppComponent</text>
</g>
<!-- AppModule -->
<g id="node2" class="node">
<title>AppModule</title>
<polygon fill="#8dd3c7" stroke="black" points="338.66,-187 335.66,-191 314.66,-191 311.66,-187 255.34,-187 255.34,-151 338.66,-151 338.66,-187"/>
<text text-anchor="middle" x="297" y="-164.8" font-family="Times,serif" font-size="14.00">AppModule</text>
</g>
<!-- AppComponent&#45;&gt;AppModule -->
<g id="edge1" class="edge">
<title>AppComponent&#45;&gt;AppModule</title>
<path fill="none" stroke="black" d="M77,-122.11C77,-141.34 77,-169 77,-169 77,-169 245.1,-169 245.1,-169"/>
<polygon fill="black" stroke="black" points="245.1,-172.5 255.1,-169 245.1,-165.5 245.1,-172.5"/>
</g>
<!-- AppComponent  -->
<g id="node6" class="node">
<title>AppComponent </title>
<polygon fill="#80b1d3" stroke="black" points="351.44,-252 242.56,-252 242.56,-216 351.44,-216 351.44,-252"/>
<text text-anchor="middle" x="297" y="-229.8" font-family="Times,serif" font-size="14.00">AppComponent </text>
</g>
<!-- AppModule&#45;&gt;AppComponent  -->
<g id="edge5" class="edge">
<title>AppModule&#45;&gt;AppComponent </title>
<path fill="none" stroke="black" stroke-dasharray="1,5" d="M297,-187.11C297,-187.11 297,-205.99 297,-205.99"/>
<polygon fill="black" stroke="black" points="293.5,-205.99 297,-215.99 300.5,-205.99 293.5,-205.99"/>
</g>
<!-- AppRoutingModule -->
<g id="node3" class="node">
<title>AppRoutingModule</title>
<polygon fill="#8dd3c7" stroke="black" points="562.27,-122 559.27,-126 538.27,-126 535.27,-122 433.73,-122 433.73,-86 562.27,-86 562.27,-122"/>
<text text-anchor="middle" x="498" y="-99.8" font-family="Times,serif" font-size="14.00">AppRoutingModule</text>
</g>
<!-- AppRoutingModule&#45;&gt;AppModule -->
<g id="edge2" class="edge">
<title>AppRoutingModule&#45;&gt;AppModule</title>
<path fill="none" stroke="black" d="M498,-122.11C498,-141.34 498,-169 498,-169 498,-169 349.14,-169 349.14,-169"/>
<polygon fill="black" stroke="black" points="349.14,-165.5 339.14,-169 349.14,-172.5 349.14,-165.5"/>
</g>
<!-- OrdersModule -->
<g id="node4" class="node">
<title>OrdersModule</title>
<polygon fill="#8dd3c7" stroke="black" points="415.64,-122 412.64,-126 391.64,-126 388.64,-122 318.36,-122 318.36,-86 415.64,-86 415.64,-122"/>
<text text-anchor="middle" x="367" y="-99.8" font-family="Times,serif" font-size="14.00">OrdersModule</text>
</g>
<!-- OrdersModule&#45;&gt;AppModule -->
<g id="edge3" class="edge">
<title>OrdersModule&#45;&gt;AppModule</title>
<path fill="none" stroke="black" d="M328.5,-122.11C328.5,-122.11 328.5,-140.99 328.5,-140.99"/>
<polygon fill="black" stroke="black" points="325,-140.99 328.5,-150.99 332,-140.99 325,-140.99"/>
</g>
<!-- SiteFrameworkModule -->
<g id="node5" class="node">
<title>SiteFrameworkModule</title>
<polygon fill="#8dd3c7" stroke="black" points="299.86,-122 296.86,-126 275.86,-126 272.86,-122 154.14,-122 154.14,-86 299.86,-86 299.86,-122"/>
<text text-anchor="middle" x="227" y="-99.8" font-family="Times,serif" font-size="14.00">SiteFrameworkModule</text>
</g>
<!-- SiteFrameworkModule&#45;&gt;AppModule -->
<g id="edge4" class="edge">
<title>SiteFrameworkModule&#45;&gt;AppModule</title>
<path fill="none" stroke="black" d="M277.55,-122.11C277.55,-122.11 277.55,-140.99 277.55,-140.99"/>
<polygon fill="black" stroke="black" points="274.05,-140.99 277.55,-150.99 281.05,-140.99 274.05,-140.99"/>
</g>
</g>
</svg>
