<?xml version="1.0" encoding="UTF-8" standalone="no"?>
<!DOCTYPE svg PUBLIC "-//W3C//DTD SVG 1.1//EN"
 "http://www.w3.org/Graphics/SVG/1.1/DTD/svg11.dtd">
<!-- Generated by graphviz version 2.46.1 (20210213.1702)
 -->
<!-- Title: dependencies Pages: 1 -->
<svg width="504pt" height="284pt"
 viewBox="0.00 0.00 504.00 284.00" xmlns="http://www.w3.org/2000/svg" xmlns:xlink="http://www.w3.org/1999/xlink">
<g id="graph0" class="graph" transform="scale(1 1) rotate(0) translate(4 280)">
<title>dependencies</title>
<polygon fill="white" stroke="transparent" points="-4,4 -4,-280 500,-280 500,4 -4,4"/>
<text text-anchor="start" x="227.01" y="-42.4" font-family="sans-serif" font-weight="bold" font-size="14.00">Legend</text>
<polygon fill="#ffffb3" stroke="transparent" points="14,-10 14,-30 34,-30 34,-10 14,-10"/>
<text text-anchor="start" x="37.63" y="-15.4" font-family="sans-serif" font-size="14.00"> &#160;Declarations</text>
<polygon fill="#8dd3c7" stroke="transparent" points="127,-10 127,-30 147,-30 147,-10 127,-10"/>
<text text-anchor="start" x="150.73" y="-15.4" font-family="sans-serif" font-size="14.00"> &#160;Module</text>
<polygon fill="#80b1d3" stroke="transparent" points="213,-10 213,-30 233,-30 233,-10 213,-10"/>
<text text-anchor="start" x="236.78" y="-15.4" font-family="sans-serif" font-size="14.00"> &#160;Bootstrap</text>
<polygon fill="#fdb462" stroke="transparent" points="310,-10 310,-30 330,-30 330,-10 310,-10"/>
<text text-anchor="start" x="333.67" y="-15.4" font-family="sans-serif" font-size="14.00"> &#160;Providers</text>
<polygon fill="#fb8072" stroke="transparent" points="406,-10 406,-30 426,-30 426,-10 406,-10"/>
<text text-anchor="start" x="429.73" y="-15.4" font-family="sans-serif" font-size="14.00"> &#160;Exports</text>
<g id="clust1" class="cluster">
<title>cluster_SiteFrameworkModule</title>
<polygon fill="none" stroke="black" stroke-dasharray="1,5" points="27,-70 27,-268 469,-268 469,-70 27,-70"/>
</g>
<g id="clust2" class="cluster">
<title>cluster_SiteFrameworkModule_declarations</title>
<polygon fill="none" stroke="black" points="40,-78 40,-130 456,-130 456,-78 40,-78"/>
</g>
<g id="clust7" class="cluster">
<title>cluster_SiteFrameworkModule_exports</title>
<polygon fill="none" stroke="black" points="35,-208 35,-260 461,-260 461,-208 35,-208"/>
</g>
<!-- FooterComponent -->
<g id="node1" class="node">
<title>FooterComponent</title>
<polygon fill="#ffffb3" stroke="black" points="447.88,-122 330.12,-122 330.12,-86 447.88,-86 447.88,-122"/>
<text text-anchor="middle" x="389" y="-99.8" font-family="Times,serif" font-size="14.00">FooterComponent</text>
</g>
<!-- SiteFrameworkModule -->
<g id="node4" class="node">
<title>SiteFrameworkModule</title>
<polygon fill="#8dd3c7" stroke="black" points="323.86,-187 320.86,-191 299.86,-191 296.86,-187 178.14,-187 178.14,-151 323.86,-151 323.86,-187"/>
<text text-anchor="middle" x="251" y="-164.8" font-family="Times,serif" font-size="14.00">SiteFrameworkModule</text>
</g>
<!-- FooterComponent&#45;&gt;SiteFrameworkModule -->
<g id="edge1" class="edge">
<title>FooterComponent&#45;&gt;SiteFrameworkModule</title>
<path fill="none" stroke="black" d="M329.96,-104C322.77,-104 317.9,-104 317.9,-104 317.9,-104 317.9,-140.89 317.9,-140.89"/>
<polygon fill="black" stroke="black" points="314.4,-140.89 317.9,-150.89 321.4,-140.89 314.4,-140.89"/>
</g>
<!-- HeaderComponent -->
<g id="node2" class="node">
<title>HeaderComponent</title>
<polygon fill="#ffffb3" stroke="black" points="311.74,-122 190.26,-122 190.26,-86 311.74,-86 311.74,-122"/>
<text text-anchor="middle" x="251" y="-99.8" font-family="Times,serif" font-size="14.00">HeaderComponent</text>
</g>
<!-- HeaderComponent&#45;&gt;SiteFrameworkModule -->
<g id="edge2" class="edge">
<title>HeaderComponent&#45;&gt;SiteFrameworkModule</title>
<path fill="none" stroke="black" d="M251,-122.11C251,-122.11 251,-140.99 251,-140.99"/>
<polygon fill="black" stroke="black" points="247.5,-140.99 251,-150.99 254.5,-140.99 247.5,-140.99"/>
</g>
<!-- SidebarComponent -->
<g id="node3" class="node">
<title>SidebarComponent</title>
<polygon fill="#ffffb3" stroke="black" points="172.1,-122 47.9,-122 47.9,-86 172.1,-86 172.1,-122"/>
<text text-anchor="middle" x="110" y="-99.8" font-family="Times,serif" font-size="14.00">SidebarComponent</text>
</g>
<!-- SidebarComponent&#45;&gt;SiteFrameworkModule -->
<g id="edge3" class="edge">
<title>SidebarComponent&#45;&gt;SiteFrameworkModule</title>
<path fill="none" stroke="black" d="M172.19,-104C179.32,-104 184.1,-104 184.1,-104 184.1,-104 184.1,-140.89 184.1,-140.89"/>
<polygon fill="black" stroke="black" points="180.6,-140.89 184.1,-150.89 187.6,-140.89 180.6,-140.89"/>
</g>
<!-- FooterComponent  -->
<g id="node5" class="node">
<title>FooterComponent </title>
<polygon fill="#fb8072" stroke="black" points="452.88,-252 331.12,-252 331.12,-216 452.88,-216 452.88,-252"/>
<text text-anchor="middle" x="392" y="-229.8" font-family="Times,serif" font-size="14.00">FooterComponent </text>
</g>
<!-- SiteFrameworkModule&#45;&gt;FooterComponent  -->
<g id="edge4" class="edge">
<title>SiteFrameworkModule&#45;&gt;FooterComponent </title>
<path fill="none" stroke="black" stroke-dasharray="5,2" d="M318.78,-187.11C318.78,-206.34 318.78,-234 318.78,-234 318.78,-234 321.2,-234 321.2,-234"/>
<polygon fill="black" stroke="black" points="321.2,-237.5 331.2,-234 321.2,-230.5 321.2,-237.5"/>
</g>
<!-- HeaderComponent  -->
<g id="node6" class="node">
<title>HeaderComponent </title>
<polygon fill="#fb8072" stroke="black" points="313.74,-252 188.26,-252 188.26,-216 313.74,-216 313.74,-252"/>
<text text-anchor="middle" x="251" y="-229.8" font-family="Times,serif" font-size="14.00">HeaderComponent </text>
</g>
<!-- SiteFrameworkModule&#45;&gt;HeaderComponent  -->
<g id="edge5" class="edge">
<title>SiteFrameworkModule&#45;&gt;HeaderComponent </title>
<path fill="none" stroke="black" stroke-dasharray="5,2" d="M251,-187.11C251,-187.11 251,-205.99 251,-205.99"/>
<polygon fill="black" stroke="black" points="247.5,-205.99 251,-215.99 254.5,-205.99 247.5,-205.99"/>
</g>
<!-- SidebarComponent  -->
<g id="node7" class="node">
<title>SidebarComponent </title>
<polygon fill="#fb8072" stroke="black" points="170.6,-252 43.4,-252 43.4,-216 170.6,-216 170.6,-252"/>
<text text-anchor="middle" x="107" y="-229.8" font-family="Times,serif" font-size="14.00">SidebarComponent </text>
</g>
<!-- SiteFrameworkModule&#45;&gt;SidebarComponent  -->
<g id="edge6" class="edge">
<title>SiteFrameworkModule&#45;&gt;SidebarComponent </title>
<path fill="none" stroke="black" stroke-dasharray="5,2" d="M183.22,-187.11C183.22,-206.34 183.22,-234 183.22,-234 183.22,-234 180.64,-234 180.64,-234"/>
<polygon fill="black" stroke="black" points="180.64,-230.5 170.64,-234 180.64,-237.5 180.64,-230.5"/>
</g>
</g>
</svg>
